<svg xmlns="http://www.w3.org/2000/svg" viewBox="0 0 560 190" fill="none">
  <defs>
    <linearGradient id="ring" x1="24" y1="170" x2="528" y2="22" gradientUnits="userSpaceOnUse">
      <stop stop-color="#2578FF" stop-opacity="0"/>
      <stop offset=".24" stop-color="#2F7EFF"/>
      <stop offset=".68" stop-color="#656BFF"/>
      <stop offset="1" stop-color="#49A2FF" stop-opacity=".12"/>
    </linearGradient>
    <linearGradient id="side" x1="271" y1="67" x2="271" y2="143" gradientUnits="userSpaceOnUse">
      <stop stop-color="#2755EE"/>
      <stop offset="1" stop-color="#061D6E"/>
    </linearGradient>
    <linearGradient id="top" x1="227" y1="65" x2="314" y2="87" gradientUnits="userSpaceOnUse">
      <stop stop-color="#8C8BFF"/>
      <stop offset=".5" stop-color="#526CFF"/>
      <stop offset="1" stop-color="#276EFF"/>
    </linearGradient>
    <radialGradient id="aura" cx="0" cy="0" r="1" gradientTransform="matrix(0 91 -135 0 272 100)" gradientUnits="userSpaceOnUse">
      <stop stop-color="#315EFF" stop-opacity=".42"/>
      <stop offset="1" stop-color="#315EFF" stop-opacity="0"/>
    </radialGradient>
    <filter id="glow" x="-100%" y="-100%" width="300%" height="300%" color-interpolation-filters="sRGB">
      <feGaussianBlur stdDeviation="5" result="blur"/>
      <feMerge><feMergeNode in="blur"/><feMergeNode in="SourceGraphic"/></feMerge>
    </filter>
  </defs>
  <ellipse cx="272" cy="101" rx="148" ry="85" fill="url(#aura)"/>
  <ellipse cx="277" cy="98" rx="234" ry="49" transform="rotate(-5 277 98)" stroke="url(#ring)" stroke-width="1.6"/>
  <ellipse cx="276" cy="97" rx="173" ry="80" transform="rotate(17 276 97)" stroke="url(#ring)" stroke-width="1.2"/>
  <path d="M59 155c108-56 206-78 290-76 68 1 119 17 160 42" stroke="url(#ring)" stroke-width="1.1"/>
  <path d="M221 75v56c0 12 23 22 51 22s51-10 51-22V75h-102Z" fill="url(#side)"/>
  <ellipse cx="272" cy="130" rx="51" ry="22" fill="#1743C8"/>
  <path d="M221 105c0 12 23 22 51 22s51-10 51-22" stroke="#5083FF" stroke-width="5"/>
  <path d="M221 79c0 12 23 22 51 22s51-10 51-22" stroke="#3F70FF" stroke-width="5"/>
  <ellipse cx="272" cy="75" rx="51" ry="22" fill="url(#top)"/>
  <ellipse cx="272" cy="73" rx="44" ry="17" stroke="#A8B3FF" stroke-opacity=".55"/>
  <g filter="url(#glow)">
    <circle cx="92" cy="115" r="13" fill="#0D2B75" stroke="#2E6FFF"/>
    <circle cx="472" cy="71" r="14" fill="#0D2B75" stroke="#4668FF"/>
    <circle cx="394" cy="149" r="10" fill="#0D2B75" stroke="#2E6FFF"/>
  </g>
  <g stroke="#6AA4FF" stroke-width="1.5" stroke-linecap="round" stroke-linejoin="round">
    <path d="M86 111h12v9H86zM89 108h6"/>
    <path d="M466 67h12v9h-12zM469 64h6"/>
    <path d="m390 149 3 3 5-6"/>
  </g>
  <g fill="#A8D5FF" filter="url(#glow)">
    <circle cx="183" cy="45" r="3.5"/>
    <circle cx="512" cy="116" r="3.5"/>
  </g>
</svg>
