<svg width="1400" height="460" viewBox="0 0 1400 460" fill="none" xmlns="http://www.w3.org/2000/svg">
  <defs>
    <linearGradient id="nodeGradient" x1="78" y1="42" x2="428" y2="310" gradientUnits="userSpaceOnUse">
      <stop stop-color="#1EE9D9"/>
      <stop offset="1" stop-color="#3A4FFF"/>
    </linearGradient>
    <linearGradient id="edgeGradient" x1="42" y1="58" x2="478" y2="336" gradientUnits="userSpaceOnUse">
      <stop stop-color="#20F0E0"/>
      <stop offset="1" stop-color="#1B7FFF"/>
    </linearGradient>
  </defs>

  <g transform="translate(20 28)">
    <g stroke="url(#edgeGradient)" stroke-width="10" stroke-linecap="round" opacity="0.98">
      <path d="M180 118L116 278"/>
      <path d="M180 118L252 212"/>
      <path d="M180 118L372 48"/>
      <path d="M180 118L274 152"/>
      <path d="M116 278L252 212"/>
      <path d="M116 278L308 388"/>
      <path d="M252 212L372 48"/>
      <path d="M252 212L392 212"/>
      <path d="M252 212L308 388"/>
      <path d="M274 152L372 48"/>
      <path d="M274 152L392 212"/>
      <path d="M274 152L252 212"/>
      <path d="M372 48L392 212"/>
      <path d="M392 212L308 388"/>
      <path d="M308 388L538 348"/>
    </g>

    <g fill="url(#nodeGradient)">
      <circle cx="180" cy="118" r="48"/>
      <circle cx="116" cy="278" r="40"/>
      <circle cx="252" cy="212" r="22"/>
      <circle cx="274" cy="152" r="28"/>
      <circle cx="372" cy="48" r="38"/>
      <circle cx="392" cy="212" r="40"/>
      <circle cx="308" cy="388" r="58"/>
      <circle cx="538" cy="348" r="22"/>
    </g>
  </g>

  <g transform="translate(560 92)">
    <text x="0" y="150" fill="#F7F7F8" font-family="Inter,Segoe UI,Arial,sans-serif" font-size="150" font-weight="700" letter-spacing="-5">AI Loom</text>
    <text x="204" y="256" fill="#19E7E7" font-family="Inter,Segoe UI,Arial,sans-serif" font-size="84" font-weight="700" letter-spacing="28">STUDIO</text>
  </g>
</svg>
