<svg width="640" height="420" viewBox="0 0 640 420" fill="none" xmlns="http://www.w3.org/2000/svg">
  <defs>
    <linearGradient id="heroBg" x1="70" y1="30" x2="540" y2="390" gradientUnits="userSpaceOnUse">
      <stop stop-color="#162235"/>
      <stop offset="1" stop-color="#0A0F16"/>
    </linearGradient>
    <linearGradient id="heroAccent" x1="112" y1="58" x2="478" y2="350" gradientUnits="userSpaceOnUse">
      <stop stop-color="#26E9D8"/>
      <stop offset="1" stop-color="#4F9CF9"/>
    </linearGradient>
  </defs>
  <rect x="20" y="20" width="600" height="380" rx="32" fill="url(#heroBg)" stroke="#2A3446"/>
  <rect x="52" y="54" width="162" height="118" rx="20" fill="#101827" stroke="#2F3C52"/>
  <rect x="236" y="54" width="352" height="118" rx="20" fill="#101827" stroke="#2F3C52"/>
  <rect x="52" y="194" width="258" height="174" rx="24" fill="#101827" stroke="#2F3C52"/>
  <rect x="332" y="194" width="256" height="174" rx="24" fill="#101827" stroke="#2F3C52"/>
  <path d="M84 133C116 104 132 92 164 118C196 144 208 136 236 110C259 88 276 88 301 102C332 119 366 172 400 160C426 151 446 117 480 115C515 113 548 143 580 133" stroke="url(#heroAccent)" stroke-width="8" stroke-linecap="round"/>
  <path d="M94 302C119 280 151 246 184 254C209 260 223 304 257 304" stroke="#26E9D8" stroke-width="8" stroke-linecap="round"/>
  <path d="M366 334L402 290L434 320L475 250L518 286L556 228" stroke="#4F9CF9" stroke-width="8" stroke-linecap="round" stroke-linejoin="round"/>
  <circle cx="128" cy="88" r="11" fill="#26E9D8"/>
  <circle cx="168" cy="88" r="11" fill="#4F9CF9"/>
  <circle cx="208" cy="88" r="11" fill="#7E62FF"/>
  <rect x="84" y="106" width="98" height="14" rx="7" fill="#1A2233"/>
  <rect x="84" y="132" width="72" height="12" rx="6" fill="#1A2233"/>
  <rect x="268" y="88" width="136" height="18" rx="9" fill="#1A2233"/>
  <rect x="268" y="122" width="290" height="12" rx="6" fill="#1A2233"/>
  <rect x="90" y="220" width="96" height="12" rx="6" fill="#1A2233"/>
  <rect x="90" y="244" width="144" height="12" rx="6" fill="#1A2233"/>
  <rect x="354" y="220" width="120" height="12" rx="6" fill="#1A2233"/>
  <rect x="354" y="244" width="82" height="12" rx="6" fill="#1A2233"/>
  <circle cx="236" cy="110" r="8" fill="#4F9CF9"/>
  <circle cx="301" cy="102" r="8" fill="#26E9D8"/>
  <circle cx="400" cy="160" r="8" fill="#7E62FF"/>
  <circle cx="480" cy="115" r="8" fill="#4F9CF9"/>
  <circle cx="580" cy="133" r="8" fill="#26E9D8"/>
</svg>
