<svg width="320" height="220" viewBox="0 0 320 220" fill="none" xmlns="http://www.w3.org/2000/svg">
  <defs>
    <linearGradient id="wfGrad" x1="52" y1="30" x2="250" y2="190" gradientUnits="userSpaceOnUse">
      <stop stop-color="#26E9D8"/>
      <stop offset="1" stop-color="#4F9CF9"/>
    </linearGradient>
  </defs>
  <rect x="12" y="12" width="296" height="196" rx="24" fill="#101827" stroke="#2A3446"/>
  <path d="M78 70L138 46L204 92L152 158L74 132L78 70Z" stroke="url(#wfGrad)" stroke-width="6" stroke-linejoin="round"/>
  <path d="M138 46L152 158" stroke="url(#wfGrad)" stroke-width="6"/>
  <path d="M78 70L152 158" stroke="url(#wfGrad)" stroke-width="6"/>
  <circle cx="78" cy="70" r="16" fill="#4F9CF9"/>
  <circle cx="138" cy="46" r="14" fill="#26E9D8"/>
  <circle cx="204" cy="92" r="16" fill="#26E9D8"/>
  <circle cx="152" cy="158" r="20" fill="#3752FF"/>
  <circle cx="74" cy="132" r="14" fill="#4F9CF9"/>
  <rect x="220" y="46" width="52" height="18" rx="9" fill="#1A2233"/>
  <rect x="220" y="74" width="64" height="12" rx="6" fill="#1A2233"/>
  <rect x="220" y="108" width="52" height="18" rx="9" fill="#1A2233"/>
  <rect x="220" y="136" width="44" height="12" rx="6" fill="#1A2233"/>
</svg>
