<svg width="320" height="220" viewBox="0 0 320 220" fill="none" xmlns="http://www.w3.org/2000/svg">
  <defs>
    <linearGradient id="assetGrad" x1="50" y1="44" x2="250" y2="176" gradientUnits="userSpaceOnUse">
      <stop stop-color="#4F9CF9"/>
      <stop offset="1" stop-color="#26E9D8"/>
    </linearGradient>
  </defs>
  <rect x="12" y="12" width="296" height="196" rx="24" fill="#101827" stroke="#2A3446"/>
  <path d="M56 66C56 54.954 64.954 46 76 46H145L184 85V154C184 165.046 175.046 174 164 174H76C64.954 174 56 165.046 56 154V66Z" fill="#0C1320" stroke="#2F3C52"/>
  <path d="M145 46V72C145 79.18 150.82 85 158 85H184" fill="#0C1320"/>
  <path d="M145 46V72C145 79.18 150.82 85 158 85H184" stroke="#2F3C52"/>
  <rect x="78" y="96" width="82" height="12" rx="6" fill="#1A2233"/>
  <rect x="78" y="120" width="64" height="10" rx="5" fill="#1A2233"/>
  <rect x="212" y="58" width="42" height="42" rx="14" fill="url(#assetGrad)"/>
  <rect x="212" y="114" width="42" height="42" rx="14" fill="#3752FF"/>
  <rect x="262" y="86" width="24" height="24" rx="8" fill="#26E9D8"/>
  <path d="M233 75V83" stroke="#0B0F16" stroke-width="6" stroke-linecap="round"/>
  <path d="M229 79H237" stroke="#0B0F16" stroke-width="6" stroke-linecap="round"/>
  <path d="M226 136L232 142L242 130" stroke="#0B0F16" stroke-width="6" stroke-linecap="round" stroke-linejoin="round"/>
</svg>
